Coordinates
version=1
nRows=17
nColumns=40
inDegrees=yes

Units are S.I. units (second, meters, Newtons, ...)
If the header above contains a line with 'inDegrees', this indicates whether rotational values are in degrees (yes) or radians (no).

endheader
time	pelvis_tilt	pelvis_list	pelvis_rotation	pelvis_tx	pelvis_ty	pelvis_tz	hip_flexion_r	hip_adduction_r	hip_rotation_r	knee_angle_r	knee_angle_r_beta	ankle_angle_r	subtalar_angle_r	mtp_angle_r	hip_flexion_l	hip_adduction_l	hip_rotation_l	knee_angle_l	knee_angle_l_beta	ankle_angle_l	subtalar_angle_l	mtp_angle_l	lumbar_extension	lumbar_bending	lumbar_rotation	arm_flex_r	arm_add_r	arm_rot_r	elbow_flex_r	pro_sup_r	wrist_flex_r	wrist_dev_r	arm_flex_l	arm_add_l	arm_rot_l	elbow_flex_l	pro_sup_l	wrist_flex_l	wrist_dev_l
      1.77000000	    -17.77736673	     -6.54168595	      0.46151204	      0.14293687	      0.49937336	     -1.20690999	     91.20012153	    -42.23185146	     -0.50304054	    114.25804083	      1.99417901	     35.14480299	      1.15476319	      0.00000000	    108.29675497	    -41.53008362	     20.31955463	    113.04568102	      1.97301934	     34.93613716	     15.05919752	      0.00000000	    -25.46289367	      5.62655174	      0.38876180	     44.99967058	    -15.00000062	     44.99967058	     75.00017585	     45.00000026	      0.00000000	      0.00000000	     44.99967058	    -15.00000062	     44.99967058	     75.00017585	     45.00000026	      0.00000000	      0.00000000
      1.77500000	    -17.40686997	     -6.44553322	      0.53352100	      0.14287390	      0.49867913	     -1.20706677	     91.07607314	    -42.32969872	     -0.26331033	    114.41091897	      1.99684724	     35.22076226	      0.78998294	      0.00000000	    107.95642542	    -41.51222886	     20.21993243	    113.19590846	      1.97564130	     35.03204399	     14.62717273	      0.00000000	    -26.02864440	      5.54716156	      0.40373822	     44.99967417	    -15.00000061	     44.99967417	     75.00017585	     45.00000026	      0.00000000	      0.00000000	     44.99967417	    -15.00000061	     44.99967417	     75.00017585	     45.00000026	      0.00000000	      0.00000000
      1.78000000	    -17.62785169	     -6.54557415	      0.47301535	      0.14307215	      0.49581976	     -1.20721025	     91.62857377	    -42.40335017	     -0.01405626	    114.77420825	      2.00318783	     35.35971736	      1.40528035	      0.00000000	    108.77309202	    -41.47385733	     20.80592308	    113.60098636	      1.98271125	     35.06277921	     15.07582453	      0.00000000	    -25.72483260	      5.66725481	      0.43204892	     44.99967779	    -15.00000059	     44.99967779	     75.00017585	     45.00000026	      0.00000000	      0.00000000	     44.99967779	    -15.00000059	     44.99967779	     75.00017585	     45.00000026	      0.00000000	      0.00000000
      1.78500000	    -17.43496545	     -6.38633859	      0.46782903	      0.14314738	      0.49435547	     -1.20719435	     91.90789043	    -42.46342618	      0.45475719	    115.03719913	      2.00777789	     35.32014083	      1.34340415	      0.00000000	    108.65825943	    -41.53211952	     20.81398116	    113.84818286	      1.98702564	     35.22773294	     15.22063521	      0.00000000	    -26.00118641	      5.48230167	      0.49941944	     44.99968025	    -15.00000058	     44.99968025	     75.00017585	     45.00000026	      0.00000000	      0.00000000	     44.99968025	    -15.00000058	     44.99968025	     75.00017585	     45.00000026	      0.00000000	      0.00000000
      1.79000000	    -17.22142018	     -6.22641723	      0.42804934	      0.14323043	      0.49300203	     -1.20709778	     92.13848917	    -42.47415804	      0.90449254	    115.30699492	      2.01248671	     35.38521755	      1.32407059	      0.00000000	    108.52097034	    -41.65234747	     20.81570298	    114.06803974	      1.99086286	     35.39539980	     15.34869431	      0.00000000	    -26.31612812	      5.29631751	      0.56379542	     44.99968272	    -15.00000057	     44.99968272	     75.00017585	     45.00000026	      0.00000000	      0.00000000	     44.99968272	    -15.00000057	     44.99968272	     75.00017585	     45.00000026	      0.00000000	      0.00000000
      1.79500000	    -17.07460364	     -6.13462179	      0.37114934	      0.14336801	      0.49135377	     -1.20708894	     92.38584946	    -42.46724480	      1.32103616	    115.58372244	      2.01731652	     35.49683251	      1.48873745	      0.00000000	    108.57415716	    -41.73997045	     20.97055539	    114.35673522	      1.99590155	     35.53537285	     15.47485833	      0.00000000	    -26.53013183	      5.17848459	      0.62505979	     44.99968491	    -15.00000056	     44.99968491	     75.00017585	     45.00000026	      0.00000000	      0.00000000	     44.99968491	    -15.00000056	     44.99968491	     75.00017585	     45.00000026	      0.00000000	      0.00000000
      1.80000000	    -16.95196443	     -6.03735827	      0.36142946	      0.14341768	      0.48979621	     -1.20713547	     92.65240545	    -42.52588221	      1.68655851	    115.82525214	      2.02153201	     35.52118665	      1.51114802	      0.00000000	    108.62471613	    -41.76569651	     21.04567784	    114.58845487	      1.99994582	     35.61218289	     15.49853107	      0.00000000	    -26.71049098	      5.09915376	      0.67486037	     44.99968704	    -15.00000056	     44.99968704	     75.00017585	     45.00000026	      0.00000000	      0.00000000	     44.99968704	    -15.00000056	     44.99968704	     75.00017585	     45.00000026	      0.00000000	      0.00000000
      1.80500000	    -16.80636275	     -5.95390058	      0.35396379	      0.14348555	      0.48814130	     -1.20719838	     92.90861902	    -42.56215719	      2.08293000	    116.09730925	      2.02628030	     35.60831611	      1.54573565	      0.00000000	    108.66009096	    -41.77254652	     21.17859683	    114.84535668	      2.00442960	     35.73250409	     15.52094571	      0.00000000	    -26.91677898	      5.03057704	      0.72010679	     44.99968902	    -15.00000055	     44.99968902	     75.00017585	     45.00000026	      0.00000000	      0.00000000	     44.99968902	    -15.00000055	     44.99968902	     75.00017585	     45.00000026	      0.00000000	      0.00000000
      1.81000000	    -16.71726227	     -5.92242233	      0.33740444	      0.14356584	      0.48640893	     -1.20733512	     93.14529746	    -42.60851302	      2.39400947	    116.34643175	      2.03062831	     35.72405899	      1.72752009	      0.00000000	    108.82936663	    -41.75934411	     21.38530596	    115.11917626	      2.00920866	     35.84065550	     15.52259463	      0.00000000	    -27.05127906	      5.00192040	      0.76048322	     44.99969094	    -15.00000054	     44.99969094	     75.00017585	     45.00000026	      0.00000000	      0.00000000	     44.99969094	    -15.00000054	     44.99969094	     75.00017585	     45.00000026	      0.00000000	      0.00000000
      1.81500000	    -16.62515298	     -5.93440339	      0.35127426	      0.14370410	      0.48457378	     -1.20756432	     93.34375374	    -42.70268120	      2.65472848	    116.61467713	      2.03531007	     35.83191121	      1.88932934	      0.00000000	    109.05364189	    -41.68803481	     21.66508794	    115.42315579	      2.01451410	     35.92780515	     15.50632890	      0.00000000	    -27.15907959	      5.03934088	      0.77934631	     44.99969265	    -15.00000053	     44.99969265	     75.00017585	     45.00000026	      0.00000000	      0.00000000	     44.99969265	    -15.00000053	     44.99969265	     75.00017585	     45.00000026	      0.00000000	      0.00000000
      1.82000000	    -16.59454777	     -6.37878020	      0.45429121	      0.14382467	      0.48261869	     -1.20841501	     93.06408922	    -42.93626566	      2.21065648	    116.78918871	      2.03835587	     35.99686281	      2.02685399	      0.00000000	    109.79925017	    -41.30442223	     22.54783796	    115.76396667	      2.02046237	     35.90374262	     15.35725137	      0.00000000	    -27.21220978	      5.61298739	      0.78613863	     44.99969529	    -15.00000052	     44.99969529	     75.00017585	     45.00000026	      0.00000000	      0.00000000	     44.99969529	    -15.00000052	     44.99969529	     75.00017585	     45.00000026	      0.00000000	      0.00000000
      1.82500000	    -16.31412225	     -6.54023337	      0.50474717	      0.14401142	      0.48135871	     -1.20887170	     92.78453402	    -43.07804108	      2.14952625	    116.97433072	      2.04158721	     36.16757079	      2.21817727	      0.00000000	    109.91888945	    -41.19130382	     22.98566975	    116.04026357	      2.02528466	     35.99091412	     15.38558419	      0.00000000	    -27.58015130	      5.79190524	      0.72864510	     44.99971372	    -15.00000046	     44.99971372	     75.00017585	     45.00000026	      0.00000000	      0.00000000	     44.99971372	    -15.00000046	     44.99971372	     75.00017585	     45.00000026	      0.00000000	      0.00000000
      1.83000000	    -16.07328339	     -6.52074012	      0.45779776	      0.14416124	      0.48000648	     -1.20895537	     92.79105894	    -43.07179125	      2.39300008	    117.19573449	      2.04545144	     36.30918728	      2.35669565	      0.00000000	    109.92370097	    -41.24939658	     23.21181892	    116.30834013	      2.02996348	     36.08966985	     15.44244851	      0.00000000	    -27.89551646	      5.73536805	      0.78211059	     44.99972974	    -15.00000041	     44.99972974	     75.00017585	     45.00000026	      0.00000000	      0.00000000	     44.99972974	    -15.00000041	     44.99972974	     75.00017585	     45.00000026	      0.00000000	      0.00000000
      1.83500000	    -15.97321727	     -6.46328759	      0.50352113	      0.14424030	      0.47818690	     -1.20920782	     93.09993239	    -43.18387186	      2.79139865	    117.46574824	      2.05016407	     36.30018644	      2.34349398	      0.00000000	    110.01294197	    -41.13564206	     23.37314593	    116.57591738	      2.03463359	     36.23574186	     15.45210558	      0.00000000	    -28.00762182	      5.73560321	      0.78070564	     44.99974516	    -15.00000036	     44.99974516	     75.00017585	     45.00000026	      0.00000000	      0.00000000	     44.99974516	    -15.00000036	     44.99974516	     75.00017585	     45.00000026	      0.00000000	      0.00000000
      1.84000000	    -15.64098400	     -6.45371574	      0.44327692	      0.14446107	      0.47708633	     -1.20926636	     92.94929083	    -43.16063765	      3.00005811	    117.67706775	      2.05385229	     36.52856047	      2.63607490	      0.00000000	    109.92880332	    -41.24923010	     23.61054011	    116.82695135	      2.03901496	     36.32214095	     15.46803543	      0.00000000	    -28.43341560	      5.68060194	      0.84694346	     44.99975905	    -15.00000032	     44.99975905	     75.00017585	     45.00000026	      0.00000000	      0.00000000	     44.99975905	    -15.00000032	     44.99975905	     75.00017585	     45.00000026	      0.00000000	      0.00000000
      1.84500000	    -15.63768364	     -6.41517428	      0.49611726	      0.14451019	      0.47499342	     -1.20955416	     93.37994837	    -43.27450625	      3.38897213	    117.95267142	      2.05866248	     36.46457910	      2.49888107	      0.00000000	    110.15590217	    -41.08000279	     23.80678523	    117.11993683	      2.04412852	     36.45461529	     15.48158547	      0.00000000	    -28.40247120	      5.74934264	      0.97147412	     44.99976643	    -15.00000030	     44.99976643	     75.00017585	     45.00000026	      0.00000000	      0.00000000	     44.99976643	    -15.00000030	     44.99976643	     75.00017585	     45.00000026	      0.00000000	      0.00000000
      1.85000000	    -15.23025673	     -6.57184577	      0.59682693	      0.14474303	      0.47407394	     -1.21013058	     92.92014074	    -43.47421993	      3.31395658	    118.11215821	      2.06144605	     36.70026043	      2.79907595	      0.00000000	    110.07824852	    -40.93471948	     24.18351306	    117.38061604	      2.04867823	     36.56295373	     15.48943802	      0.00000000	    -28.90428318	      5.91188389	      0.79117785	     44.99977335	    -15.00000028	     44.99977335	     75.00017585	     45.00000026	      0.00000000	      0.00000000	     44.99977335	    -15.00000028	     44.99977335	     75.00017585	     45.00000026	      0.00000000	      0.00000000
